<svg width="36" height="36" viewBox="0 0 36 36" fill="none" xmlns="http://www.w3.org/2000/svg">
<g id="Logo / Direct / Mark / Color">
<path id="Union" fill-rule="evenodd" clip-rule="evenodd" d="M20.1602 33.2266C11.9329 33.2266 5.25429 26.53 5.25429 18.2944C5.2543 10.045 11.9329 3.34846 20.1602 3.36233L20.1602 12.3327C16.8831 12.3327 14.2144 15.0085 14.2144 18.2944C14.2144 21.5803 16.8831 24.2562 20.1602 24.2562L20.1602 33.2266ZM20.1603 8.72265L20.1603 27.9308C20.1603 30.795 22.4957 33.1266 25.3422 33.1266C28.1887 33.1266 30.524 30.785 30.524 27.9308L30.524 8.72265C30.5241 5.86848 28.1887 3.52685 25.3422 3.52685C22.4957 3.52685 20.1603 5.86848 20.1603 8.72265Z" fill="white"/>
</g>
</svg>
