<svg width="22" height="22" viewBox="0 0 22 22" fill="none" xmlns="http://www.w3.org/2000/svg">
<path id="Vector" d="M11 22C9.13333 22 7.41667 21.575 5.85 20.725C4.28333 19.875 3 18.7417 2 17.325V20H0V14H6V16H3.525C4.325 17.2 5.37917 18.1667 6.6875 18.9C7.99583 19.6333 9.43333 20 11 20C12.25 20 13.4208 19.7625 14.5125 19.2875C15.6042 18.8125 16.5542 18.1708 17.3625 17.3625C18.1708 16.5542 18.8125 15.6042 19.2875 14.5125C19.7625 13.4208 20 12.25 20 11H22C22 12.5167 21.7125 13.9417 21.1375 15.275C20.5625 16.6083 19.775 17.775 18.775 18.775C17.775 19.775 16.6083 20.5625 15.275 21.1375C13.9417 21.7125 12.5167 22 11 22ZM0 11C0 9.48333 0.2875 8.05833 0.8625 6.725C1.4375 5.39167 2.225 4.225 3.225 3.225C4.225 2.225 5.39167 1.4375 6.725 0.8625C8.05833 0.2875 9.48333 0 11 0C12.8667 0 14.5833 0.425 16.15 1.275C17.7167 2.125 19 3.25833 20 4.675V2H22V8H16V6H18.475C17.675 4.8 16.6208 3.83333 15.3125 3.1C14.0042 2.36667 12.5667 2 11 2C9.75 2 8.57917 2.2375 7.4875 2.7125C6.39583 3.1875 5.44583 3.82917 4.6375 4.6375C3.82917 5.44583 3.1875 6.39583 2.7125 7.4875C2.2375 8.57917 2 9.75 2 11H0ZM11 16.5C11 14.9667 10.4667 13.6667 9.4 12.6C8.33333 11.5333 7.03333 11 5.5 11C7.03333 11 8.33333 10.4667 9.4 9.4C10.4667 8.33333 11 7.03333 11 5.5C11 7.03333 11.5333 8.33333 12.6 9.4C13.6667 10.4667 14.9667 11 16.5 11C14.9667 11 13.6667 11.5333 12.6 12.6C11.5333 13.6667 11 14.9667 11 16.5Z" fill="white"/>
</svg>
